<svg width="64" height="64" viewBox="0 0 64 64" fill="none" xmlns="http://www.w3.org/2000/svg">
<path d="M32 18.4831C39.9283 18.4831 47.3253 21.5159 52.8305 27.021L56 23.8515C49.6498 17.499 41.1252 14 32 14C22.8747 14.0023 14.3502 17.499 8 23.8515L11.1695 27.021C16.6747 21.5159 24.0717 18.4831 32 18.4831ZM44.7117 37.1034C37.8213 30.2129 26.1788 30.2129 19.2883 37.1034L22.4578 40.2729C27.629 35.1017 36.371 35.1017 41.5422 40.2729L44.7117 37.1034Z" fill="white"/>
<path d="M50.9116 30.3473C40.6634 20.0945 23.3386 20.0945 13.0903 30.3473L16.2599 33.5168C24.7934 24.9833 39.2086 24.9833 47.7421 33.5168L50.9116 30.3473Z" fill="white"/>
<path d="M31.9996 49.8646C34.4756 49.8646 36.4827 47.8574 36.4827 45.3815C36.4827 42.9056 34.4756 40.8984 31.9996 40.8984C29.5237 40.8984 27.5166 42.9056 27.5166 45.3815C27.5166 47.8574 29.5237 49.8646 31.9996 49.8646Z" fill="white"/>
</svg>
