<svg width="48" height="48" viewBox="0 0 48 48" fill="none" xmlns="http://www.w3.org/2000/svg">
<path d="M6 39.446V42.0001C6 42.5305 6.21071 43.0392 6.58579 43.4143C6.96086 43.7893 7.46957 44 8.00001 44H10C10.5304 44 11.0392 43.7893 11.4142 43.4143C11.7893 43.0392 12 42.5305 12 42.0001V40H36V42.0001C36 42.5305 36.2107 43.0392 36.5858 43.4143C36.9609 43.7893 37.4695 44 38 44H40C40.5304 44 41.0392 43.7893 41.4142 43.4143C41.7893 43.0392 42 42.5305 42 42.0001V39.446C42.6068 39.098 43.1111 38.5963 43.4623 37.9913C43.8133 37.3864 43.9988 36.6995 44 36.0001V30.0001C44 28.3381 42.986 26.9161 41.544 26.3101L38.808 18.1021C38.4111 16.907 37.6477 15.8674 36.6262 15.131C35.6047 14.3947 34.3772 13.9989 33.118 14H14.882C13.6228 13.9989 12.3952 14.3947 11.3737 15.131C10.3523 15.8674 9.58889 16.907 9.19199 18.1021L6.456 26.3101C5.7286 26.6147 5.10743 27.1275 4.67047 27.784C4.23351 28.4404 4.00026 29.2114 4 30.0001V36.0001C4 37.4761 4.808 38.752 6 39.446ZM11 36.0001C10.6059 35.9999 10.2157 35.9221 9.85161 35.7712C9.48756 35.6203 9.15681 35.3991 8.87826 35.1204C8.31569 34.5574 7.99971 33.7939 8.00001 32.998C8.00024 32.2021 8.31666 31.4389 8.87969 30.8763C9.44264 30.3137 10.2061 29.9977 11.002 29.998C11.7979 29.9983 12.5611 30.3148 13.1237 30.8777C13.6864 31.4407 14.0023 32.2041 14.002 33.0001C14.0017 33.796 13.6853 34.5592 13.1223 35.1217C12.5593 35.6844 11.7959 36.0003 11 36.0001ZM37 36.0001C36.2041 35.9998 35.4409 35.6833 34.8783 35.1204C34.3156 34.5574 33.9997 33.7939 34 32.998C34.0003 32.2021 34.3167 31.4389 34.8797 30.8763C35.4427 30.3137 36.2061 29.9977 37.002 29.998C37.7979 29.9983 38.5611 30.3148 39.1237 30.8777C39.6863 31.4407 40.0023 32.2041 40.002 33.0001C40.0018 33.796 39.6853 34.5592 39.1223 35.1217C38.5594 35.6844 37.7959 36.0003 37 36.0001ZM14.882 18.0001H33.116C33.5359 17.9999 33.9452 18.132 34.2859 18.3775C34.6266 18.6231 34.8813 18.9696 35.014 19.3681L37.226 26H10.774L12.984 19.3681C13.258 18.55 14.022 18.0001 14.882 18.0001Z" fill="white"/>
<path d="M44 14.776V10.558L24.632 4.10203C24.204 3.95876 23.74 3.96511 23.316 4.12003L4 11.144V15.4L24.03 8.11605L44 14.776Z" fill="white"/>
</svg>
