<svg width="42" height="42" viewBox="0 0 42 42" fill="none" xmlns="http://www.w3.org/2000/svg">
<path d="M33.25 7H31.5V3.5H28V7H14V3.5H10.5V7H8.75C7.82175 7 6.9315 7.36874 6.27513 8.02513C5.61874 8.68151 5.25 9.57175 5.25 10.5V35C5.25 35.9282 5.61874 36.8184 6.27513 37.4748C6.9315 38.1313 7.82175 38.5 8.75 38.5H33.25C34.1782 38.5 35.0684 38.1313 35.7248 37.4748C36.3813 36.8184 36.75 35.9282 36.75 35V10.5C36.75 9.57175 36.3813 8.68151 35.7248 8.02513C35.0684 7.36874 34.1782 7 33.25 7ZM33.25 35H8.75V17.5H33.25V35ZM8.75 14V10.5H33.25V14H8.75ZM18.48 32.305L28.875 21.9275L27.0025 20.0725L18.48 28.595L14.7875 24.9025L12.9325 26.7575L18.48 32.305Z" fill="white"/>
</svg>
