<svg width="42" height="42" viewBox="0 0 42 42" fill="none" xmlns="http://www.w3.org/2000/svg">
<path d="M37.3334 4.66664V37.3334H4.66664V4.66664H37.3334ZM37.3334 0H4.66664C2.1 0 0 2.1 0 4.66664V37.3334C0 39.9 2.1 42 4.66664 42H37.3334C39.9 42 42 39.9 42 37.3334V4.66664C42 2.1 39.9 0 37.3334 0ZM16.3334 35V25.6666H18.6666V19.8334C18.6666 17.2666 16.5666 15.1666 14 15.1666H11.6666C9.1 15.1666 7 17.2666 7 19.8334V25.6666H9.33336V35H16.3334ZM12.8334 12.8334C14.4434 12.8334 15.75 11.5266 15.75 9.91664C15.75 8.30664 14.4434 7 12.8334 7C11.2234 7 9.91664 8.30664 9.91664 9.91664C9.91664 11.5266 11.2234 12.8334 12.8334 12.8334ZM35 18.6666L29.1666 9.33336L23.3334 18.6666H35ZM23.3334 23.3334L29.1666 32.6666L35 23.3334H23.3334Z" fill="white"/>
</svg>
