<svg width="44" height="42" viewBox="0 0 44 42" fill="none" xmlns="http://www.w3.org/2000/svg">
<path d="M17.6 0H26.4C27.567 0 28.6861 0.465794 29.5113 1.2949C30.3364 2.12401 30.8 3.24852 30.8 4.42105V8.84208H39.6C40.767 8.84208 41.8861 9.30787 42.7113 10.137C43.5364 10.9661 44 12.0906 44 13.2632V37.579C44 38.7515 43.5364 39.876 42.7113 40.7051C41.8861 41.5342 40.767 42 39.6 42H4.39997C1.958 42 0 40.0105 0 37.579V13.2632C0 10.8095 1.958 8.84208 4.39997 8.84208H13.2V4.42105C13.2 1.96738 15.158 0 17.6 0ZM26.4 8.84208V4.42105H17.6V8.84208H26.4Z" fill="white"/>
</svg>
