<svg width="42" height="42" viewBox="0 0 42 42" fill="none" xmlns="http://www.w3.org/2000/svg">
<g clip-path="url(#clip0_55_568)">
<mask id="mask0_55_568" style="mask-type:luminance" maskUnits="userSpaceOnUse" x="0" y="0" width="43" height="43">
<path d="M42.0009 0.000488281H0.000854492V42.0005H42.0009V0.000488281Z" fill="white"/>
</mask>
<g mask="url(#mask0_55_568)">
<path d="M31.405 24.9849C30.7767 22.7078 29.4189 20.6996 27.5396 19.2685C25.6604 17.8375 23.3634 17.0625 21.0014 17.0625C18.6393 17.0625 16.3423 17.8375 14.463 19.2685C12.5837 20.6996 11.2258 22.7078 10.5977 24.9849L9.10079 30.4113C8.83202 31.3855 8.79193 32.4087 8.98363 33.401C9.17532 34.3934 9.59362 35.3281 10.2059 36.132C10.8182 36.9361 11.608 37.588 12.5136 38.0367C13.4192 38.4854 14.4163 38.7189 15.427 38.7189H26.5757C27.5863 38.7189 28.5835 38.4854 29.4891 38.0367C30.3947 37.588 31.1843 36.9361 31.7966 36.132C32.409 35.3281 32.8274 34.3934 33.019 33.401C33.2106 32.4087 33.1706 31.3855 32.9018 30.4113L31.405 24.9849ZM29.7084 34.5414C29.3426 35.0257 28.8691 35.418 28.3253 35.6875C27.7816 35.957 27.1826 36.0961 26.5757 36.0939H15.427C14.8205 36.0939 14.2223 35.9537 13.6789 35.6845C13.1355 35.4154 12.6617 35.0243 12.2943 34.5418C11.9269 34.0593 11.6759 33.4984 11.5609 32.9031C11.4459 32.3077 11.4699 31.6938 11.6312 31.1092L13.1281 25.6829C13.6035 23.9597 14.6311 22.44 16.0533 21.3569C17.4755 20.274 19.2138 19.6876 21.0014 19.6876C22.7889 19.6876 24.5271 20.274 25.9494 21.3569C27.3716 22.44 28.3992 23.9597 28.8745 25.6829L30.3714 31.1092C30.5351 31.6935 30.5603 32.3079 30.4451 32.9038C30.3301 33.4997 30.0778 34.06 29.7084 34.5414Z" fill="white"/>
<path d="M11.986 18.8929C12.2144 17.4656 11.9115 15.9376 11.1329 14.5893C10.3542 13.2411 9.18216 12.2148 7.83218 11.6989C6.38645 11.1467 4.91186 11.2347 3.6786 11.9464C1.22693 13.3619 0.581754 16.8506 2.24068 19.7233C3.01906 21.0717 4.19121 22.0982 5.5412 22.6138C6.13921 22.8469 6.77488 22.9683 7.41667 22.9724C8.21627 22.9753 9.00235 22.766 9.69477 22.3662C10.9273 21.6544 11.741 20.4209 11.986 18.8929ZM9.39381 18.478C9.27649 19.2106 8.91719 19.784 8.38211 20.0929C7.84702 20.4018 7.17075 20.4261 6.47759 20.1615C5.68902 19.8605 4.99159 19.2386 4.51367 18.4108C3.59492 16.8194 3.8133 14.8999 4.9911 14.2197C5.28719 14.0517 5.6225 13.9651 5.96293 13.9688C6.28225 13.9721 6.59829 14.0338 6.89545 14.1507C7.68402 14.452 8.38145 15.0737 8.85936 15.9015C9.33728 16.7293 9.52702 17.6445 9.39381 18.478Z" fill="white"/>
<path d="M12.2702 13.4548C13.2022 14.1998 14.2665 14.5879 15.3429 14.5878C15.6653 14.5877 15.9867 14.553 16.3017 14.4843C19.068 13.883 20.7454 10.7566 20.0407 7.51512C19.7101 5.99378 18.9065 4.65905 17.7777 3.75663C16.5689 2.7903 15.1372 2.42451 13.7461 2.72705C10.9798 3.32833 9.30251 6.45471 10.0071 9.69616C10.3378 11.2176 11.1415 12.5523 12.2702 13.4548ZM14.3035 5.29217C14.4311 5.26466 14.5612 5.2509 14.6917 5.25115C15.1796 5.25115 15.6815 5.44204 16.1385 5.8074C16.7978 6.33445 17.2727 7.1391 17.4756 8.07318C17.8661 9.86926 17.0732 11.6307 15.7442 11.9196C15.1404 12.0509 14.4887 11.8681 13.9094 11.4049C13.2501 10.8777 12.7752 10.0731 12.5723 9.1391C12.1817 7.34254 12.9746 5.58107 14.3035 5.29217Z" fill="white"/>
<path d="M38.3236 11.9464C37.0909 11.2347 35.6155 11.1467 34.17 11.6989C32.82 12.2146 31.6479 13.2411 30.8695 14.5893C30.0911 15.9376 29.7882 17.4659 30.0164 18.8929C30.261 20.4209 31.0746 21.6544 32.3076 22.3662C32.9999 22.7662 33.786 22.9753 34.5856 22.9724C35.2275 22.9683 35.8631 22.8469 36.4613 22.6138C37.8112 22.0981 38.9834 21.0715 39.7618 19.7233C41.4204 16.8506 40.7754 13.3619 38.3236 11.9464ZM37.4885 18.4108C37.0106 19.2386 36.3132 19.8603 35.5247 20.1615C34.8318 20.4263 34.1553 20.402 33.6203 20.0929C33.0852 19.7839 32.7261 19.2104 32.6086 18.478C32.4751 17.6445 32.6648 16.7296 33.1429 15.9022C33.6208 15.0749 34.3182 14.4527 35.1068 14.1514C35.4039 14.0344 35.72 13.9727 36.0393 13.9693C36.3797 13.9655 36.715 14.0521 37.0111 14.2201C38.1889 14.8997 38.4076 16.819 37.4885 18.4108Z" fill="white"/>
<path d="M25.7005 14.4842C26.0155 14.5529 26.337 14.5875 26.6594 14.5876C27.7356 14.5876 28.8003 14.1997 29.732 13.4546C30.8608 12.5523 31.6645 11.2175 31.9951 9.69612C32.6997 6.45466 31.0225 3.32829 28.2562 2.72699C26.8652 2.42462 25.4333 2.79016 24.2246 3.75657C23.0958 4.65892 22.2921 5.99373 21.9615 7.51499C21.2568 10.7565 22.9341 13.8828 25.7005 14.4842ZM24.5266 8.07264C24.7296 7.13855 25.2044 6.33358 25.8636 5.80687C26.3207 5.44148 26.8226 5.25061 27.3105 5.25061C27.4409 5.25037 27.5711 5.26412 27.6987 5.29161C29.0276 5.58054 29.8206 7.3424 29.4301 9.13806C29.227 10.0722 28.7522 10.8771 28.093 11.4039C27.5137 11.8671 26.8625 12.0499 26.2583 11.9187C24.9291 11.6302 24.1362 9.86848 24.5266 8.07264Z" fill="white"/>
</g>
<path d="M38.4991 38.5L3.49915 3.5" stroke="white" stroke-width="1.49989" stroke-miterlimit="10" stroke-linecap="round"/>
</g>
<defs>
<clipPath id="clip0_55_568">
<rect width="42" height="42" fill="white"/>
</clipPath>
</defs>
</svg>
