<svg width="44" height="42" viewBox="0 0 44 42" fill="none" xmlns="http://www.w3.org/2000/svg">
<path d="M0 28.7368C3.674 27.0789 7.326 25.421 11 24.6916V6.63161C11 4.87275 11.6954 3.18601 12.9331 1.94235C14.1709 0.698687 15.8496 0 17.6 0C20.482 0 22.924 1.83474 23.826 4.42105H17.6C17.0165 4.42105 16.4569 4.65399 16.0444 5.06854C15.6318 5.4831 15.4 6.04529 15.4 6.63161V8.84208H26.4V6.63161C26.4 4.87275 27.0953 3.18601 28.3331 1.94235C29.5708 0.698687 31.2496 0 33 0C35.882 0 38.324 1.83474 39.226 4.42105H33C32.4165 4.42105 31.857 4.65399 31.4444 5.06854C31.0318 5.4831 30.8 6.04529 30.8 6.63161V28.6042C35.2 27.8969 39.6 24.3158 44 24.3158V28.7368C39.116 28.7368 34.232 33.1579 29.326 33.1579C24.442 33.1579 19.558 28.7368 14.674 28.7368C9.768 28.7368 4.884 30.9474 0 33.1579V28.7368ZM26.4 13.2632H15.4V17.6842H26.4V13.2632ZM26.4 22.1052H15.4V24.3158C19.074 24.6695 22.726 27.2116 26.4 28.2726V22.1052ZM0 37.579C4.884 35.3684 9.768 33.1579 14.674 33.1579C19.558 33.1579 24.442 37.579 29.326 37.579C34.232 37.579 39.116 33.1579 44 33.1579V37.579C39.116 37.579 34.232 42 29.326 42C24.442 42 19.558 37.579 14.674 37.579C9.768 37.579 4.884 39.7895 0 42V37.579Z" fill="white"/>
</svg>
