<svg width="42" height="42" viewBox="0 0 42 42" fill="none" xmlns="http://www.w3.org/2000/svg">
<path d="M30.9996 20.2596C31.834 20.2701 32.662 20.1122 33.4348 19.7953C34.2076 19.4785 34.9095 19.0091 35.4991 18.4149L41.3943 12.4821C41.7823 12.0893 42 11.558 42 11.0041C42 10.4503 41.7823 9.91893 41.3943 9.52617C41.2006 9.32971 40.9703 9.17374 40.7164 9.0673C40.4625 8.96085 40.1903 8.90606 39.9153 8.90606C39.6403 8.90606 39.368 8.96085 39.1142 9.0673C38.8604 9.17374 38.6299 9.32971 38.4363 9.52617L32.4786 15.438C32.285 15.6345 32.0546 15.7904 31.8008 15.8969C31.5469 16.0033 31.2746 16.0581 30.9996 16.0581C30.7246 16.0581 30.4524 16.0033 30.1985 15.8969C29.9446 15.7904 29.7143 15.6345 29.5206 15.438L36.8948 8.03776C37.089 7.84225 37.2431 7.61025 37.3482 7.35484C37.4533 7.09942 37.5074 6.82576 37.5074 6.54927C37.5074 6.27286 37.4533 5.99913 37.3482 5.74379C37.2431 5.48837 37.089 5.2563 36.8948 5.06086C36.7006 4.86543 36.47 4.71032 36.2162 4.60459C35.9625 4.49877 35.6905 4.44437 35.4158 4.44437C35.1411 4.44437 34.8692 4.49877 34.6154 4.60459C34.3616 4.71032 34.131 4.86543 33.9368 5.06086L26.5835 12.4821C26.1954 12.0893 25.9777 11.558 25.9777 11.0041C25.9777 10.4503 26.1954 9.91893 26.5835 9.52617L32.4786 3.5934C32.6728 3.39794 32.8269 3.16588 32.932 2.9105C33.0372 2.65512 33.0912 2.38139 33.0912 2.10497C33.0912 1.82854 33.0372 1.55481 32.932 1.29943C32.8269 1.04405 32.6728 0.811993 32.4786 0.616534C32.2844 0.421067 32.0539 0.266016 31.8001 0.160232C31.5463 0.0544482 31.2743 0 30.9996 0C30.7249 0 30.4529 0.0544482 30.1992 0.160232C29.9454 0.266016 29.7148 0.421067 29.5206 0.616534L23.6254 6.54927C22.4552 7.72849 21.7978 9.32704 21.7978 10.9937C21.7978 12.6603 22.4552 14.2588 23.6254 15.438L20.9174 18.1423L3.69019 0.742317L3.48188 0.616534C3.3754 0.52303 3.25614 0.445375 3.12775 0.385926L2.75279 0.239184L2.50282 0.0714684H2.35701H1.94039C1.81619 0.0514846 1.68963 0.0514846 1.56543 0.0714684C1.43933 0.117662 1.32016 0.181151 1.2113 0.260143L0.878006 0.469785H0.732194L0.607208 0.679426C0.519038 0.790107 0.442266 0.909515 0.378062 1.03581C0.317061 1.16364 0.26823 1.29701 0.23225 1.43413C0.23225 1.43413 0.23225 1.58087 0.23225 1.66473C-0.273248 5.21055 0.0490363 8.82619 1.17355 12.2248C2.29806 15.6236 4.19386 18.7119 6.71069 21.245L12.2101 26.7585L0.940499 38.079C0.745255 38.2738 0.590288 38.5057 0.484526 38.7612C0.378773 39.0167 0.324326 39.2906 0.324326 39.5674C0.324326 39.8442 0.378773 40.1181 0.484526 40.3736C0.590288 40.6291 0.745255 40.861 0.940499 41.0559C1.13515 41.2501 1.36599 41.4039 1.61979 41.5082C1.87359 41.6125 2.14536 41.6654 2.4195 41.6638C2.69365 41.6654 2.96542 41.6125 3.21922 41.5082C3.47302 41.4039 3.70386 41.2501 3.8985 41.0559L16.5429 28.5194L22.4381 22.5866L26.6043 18.3939C27.7666 19.5763 29.347 20.2471 30.9996 20.2596ZM15.0639 24.0751L9.58536 18.5407C6.5825 15.4773 4.70224 11.4785 4.2526 7.19918L18.0219 21.0353L15.0639 24.0751ZM28.0624 25.2701C27.6702 24.8725 27.1371 24.6481 26.5804 24.6461C26.0237 24.6441 25.489 24.8648 25.094 25.2595C24.6991 25.6543 24.476 26.1908 24.4741 26.7511C24.4721 27.3113 24.6914 27.8494 25.0836 28.2469L38.2071 41.4541C38.605 41.8185 39.1276 42.0139 39.6653 41.9992C39.9394 42.0008 40.2112 41.9479 40.465 41.8436C40.7188 41.7393 40.9496 41.5856 41.1443 41.3912C41.3395 41.1963 41.4945 40.9645 41.6003 40.709C41.706 40.4536 41.7605 40.1795 41.7605 39.9028C41.7605 39.6261 41.706 39.352 41.6003 39.0966C41.4945 38.8411 41.3395 38.6093 41.1443 38.4144L28.0624 25.2701Z" fill="white"/>
</svg>
