<svg width="42" height="42" viewBox="0 0 42 42" fill="none" xmlns="http://www.w3.org/2000/svg">
<path d="M3.5 10.5L15.75 22.75H3.5V28H21L33.25 40.25L35.4375 38.0625L5.6875 8.3125L3.5 10.5ZM35.875 22.75H38.5V28H35.875V22.75ZM31.5 22.75H34.125V28H31.5V22.75ZM32.9875 8.54C34.0725 7.4725 34.7375 6.0025 34.7375 4.375H32.1125C32.1125 6.125 30.625 7.6125 28.875 7.6125V10.2375C32.795 10.2375 35.875 13.44 35.875 17.36V21H38.5V17.36C38.5 13.4575 36.26 10.0975 32.9875 8.54ZM25.375 15.225H28.0525C29.89 15.225 31.5 16.52 31.5 18.8125V21H34.125V18.2175C34.125 15.0675 31.325 12.6875 28.0525 12.6875H25.375C23.625 12.6875 22.1375 10.9725 22.1375 9.1875C22.1375 7.4025 23.625 6.125 25.375 6.125V3.5C23.8201 3.5 22.3289 4.11766 21.2296 5.21708C20.1301 6.31652 19.5125 7.80766 19.5125 9.3625C19.5125 10.9173 20.1301 12.4085 21.2296 13.5079C22.3289 14.6073 23.8201 15.225 25.375 15.225ZM29.75 27.8775V22.75H24.6225L29.75 27.8775Z" fill="white"/>
</svg>
