<svg width="42" height="42" viewBox="0 0 42 42" fill="none" xmlns="http://www.w3.org/2000/svg">
<path d="M34.1212 35.43L5.24829 6.55713" stroke="white" stroke-width="1.49989" stroke-miterlimit="10" stroke-linecap="round"/>
<path d="M19.9597 8.10407C19.6321 7.92743 19.2611 7.84767 18.8901 7.87409C18.519 7.90053 18.163 8.03208 17.8639 8.25335L17.8097 8.29519L15.4704 10.2105C15.3995 10.2685 15.3414 10.3408 15.3001 10.4227C15.2588 10.5046 15.2351 10.5942 15.2305 10.6857C15.226 10.7773 15.2407 10.8688 15.2736 10.9544C15.3066 11.0399 15.3572 11.1176 15.422 11.1825L19.8784 15.6389C19.9702 15.7308 20.0871 15.7933 20.2145 15.8187C20.3419 15.8441 20.4739 15.8311 20.5939 15.7814C20.7138 15.7317 20.8164 15.6475 20.8885 15.5395C20.9606 15.4315 20.9991 15.3045 20.9989 15.1746V9.88484C21.0026 9.52184 20.9079 9.16461 20.725 8.85108C20.542 8.53755 20.2775 8.27941 19.9597 8.10407Z" fill="white"/>
<path d="M20.6173 27.4974L7.9329 14.8163C7.6869 14.5702 7.35321 14.4318 7.00519 14.4316H4.5953C4.07321 14.4316 3.57248 14.6391 3.2033 15.0082C2.8341 15.3774 2.62671 15.8781 2.62671 16.4003V25.5871C2.62671 26.1091 2.8341 26.6099 3.2033 26.979C3.57248 27.3483 4.07321 27.5556 4.5953 27.5556H10.3174L17.8636 33.733C18.1666 33.9578 18.5279 34.0905 18.9042 34.115C19.2806 34.1397 19.6562 34.0551 19.9857 33.8716C20.297 33.6941 20.5551 33.4367 20.7336 33.1259C20.912 32.8151 21.004 32.4623 21.0003 32.1039V28.4243C21.0003 28.0768 20.8626 27.7434 20.6173 27.4974Z" fill="white"/>
<path d="M28.8744 20.9933C28.8744 18.9789 28.3979 17.0668 27.4184 15.1475C27.3408 14.9928 27.2332 14.8549 27.1022 14.742C26.9711 14.629 26.8188 14.543 26.6543 14.4891C26.4898 14.4352 26.3164 14.4144 26.1437 14.4278C25.9711 14.4412 25.803 14.4886 25.6488 14.5673C25.4946 14.646 25.3576 14.7545 25.2454 14.8864C25.1334 15.0183 25.0485 15.1711 24.9957 15.3359C24.9428 15.5008 24.9232 15.6744 24.9378 15.8469C24.9525 16.0194 25.0009 16.1873 25.0807 16.3409C25.8673 17.8813 26.2495 19.4038 26.2495 20.9933C26.2495 21.2121 26.2412 21.4343 26.2242 21.6603C26.2172 21.7544 26.2305 21.8489 26.2634 21.9373C26.2963 22.0258 26.3477 22.1062 26.4144 22.1728L27.5923 23.3508C27.6774 23.436 27.7843 23.4962 27.9014 23.5247C28.0185 23.5534 28.141 23.549 28.2558 23.5126C28.3706 23.4761 28.4731 23.4087 28.552 23.3179C28.6311 23.2269 28.6836 23.1159 28.7038 22.9973C28.8168 22.3352 28.8739 21.665 28.8744 20.9933Z" fill="white"/>
<path d="M34.1245 20.9942C34.1245 16.7961 33.0515 14.113 31.3208 11.1462C31.1432 10.8504 30.856 10.6365 30.5217 10.5508C30.1875 10.4652 29.8329 10.5146 29.5347 10.6885C29.2367 10.8623 29.019 11.1466 28.9291 11.4797C28.8389 11.8129 28.8837 12.1681 29.0537 12.4684C30.6031 15.1244 31.4996 17.3711 31.4996 20.9942C31.4996 22.9487 31.2298 24.5113 30.731 25.9689C30.691 26.0851 30.6843 26.2102 30.712 26.3301C30.7394 26.4498 30.8002 26.5595 30.887 26.6465L31.9098 27.6709C31.9872 27.7483 32.0826 27.8052 32.1876 27.8363C32.2924 27.8675 32.4033 27.8718 32.5104 27.8491C32.6175 27.8263 32.7171 27.7772 32.8004 27.7061C32.8835 27.6351 32.9476 27.5442 32.9868 27.442C33.7143 25.5678 34.1245 23.5583 34.1245 20.9942Z" fill="white"/>
<path d="M39.3711 20.993C39.3711 14.9027 37.7151 11.059 35.228 7.16283C35.0408 6.86914 34.7445 6.66189 34.4043 6.58666C34.0643 6.51144 33.7081 6.57441 33.4145 6.76171C33.1208 6.94903 32.9136 7.24532 32.8384 7.58543C32.7631 7.92554 32.8261 8.2816 33.0134 8.57528C35.2551 12.0835 36.7463 15.5384 36.7463 20.993C36.7463 24.7818 36.0549 27.5772 34.9065 30.0592C34.8504 30.181 34.8327 30.3168 34.856 30.449C34.8792 30.5809 34.9424 30.7025 35.0369 30.7976L36.0146 31.7753C36.0887 31.8504 36.1795 31.9067 36.2798 31.9393C36.38 31.9716 36.4866 31.9797 36.5907 31.9622C36.6947 31.9449 36.7929 31.9027 36.877 31.8393C36.9612 31.776 37.0289 31.6932 37.0744 31.598C38.6822 28.2851 39.3711 25.0122 39.3711 20.993Z" fill="white"/>
</svg>
